<svg width="24" height="24" viewBox="0 0 24 24" fill="none" xmlns="http://www.w3.org/2000/svg">
<path fill-rule="evenodd" clip-rule="evenodd" d="M12.0001 2.09961C6.53246 2.09961 2.1001 6.53199 2.1001 11.9996C2.1001 17.4672 6.53246 21.8996 12.0001 21.8996C17.4677 21.8996 21.9 17.4672 21.9 11.9996C21.9 6.53199 17.4677 2.09961 12.0001 2.09961ZM3.90009 11.9996C3.90009 7.5261 7.52657 3.89961 12.0001 3.89961C13.9126 3.89961 15.6703 4.56243 17.056 5.6709L5.67137 17.0555C4.56291 15.6698 3.90009 13.9121 3.90009 11.9996ZM6.94416 18.3283C8.32986 19.4368 10.0876 20.0996 12.0001 20.0996C16.4735 20.0996 20.1 16.4731 20.1 11.9996C20.1 10.0871 19.4372 8.3294 18.3287 6.94369L6.94416 18.3283Z" fill="#E52222"/>
</svg>
