<svg width="24" height="24" viewBox="0 0 24 24" fill="none" xmlns="http://www.w3.org/2000/svg">
<path d="M12 8.09961C12.4971 8.09961 12.9 8.50255 12.9 8.99961V12.9996C12.9 13.4967 12.4971 13.8996 12 13.8996C11.503 13.8996 11.1 13.4967 11.1 12.9996V8.99961C11.1 8.50255 11.503 8.09961 12 8.09961Z" fill="#F55A00"/>
<path d="M12.9999 16.4996C12.9999 17.0519 12.5522 17.4996 11.9999 17.4996C11.4476 17.4996 10.9999 17.0519 10.9999 16.4996C10.9999 15.9473 11.4476 15.4996 11.9999 15.4996C12.5522 15.4996 12.9999 15.9473 12.9999 16.4996Z" fill="#F55A00"/>
<path fill-rule="evenodd" clip-rule="evenodd" d="M13.1793 3.10033C12.4285 2.76604 11.5711 2.76604 10.8203 3.10033C10.297 3.33333 9.91914 3.76043 9.59081 4.22516C9.2653 4.68589 8.90716 5.30622 8.47143 6.06097L3.36058 14.9132C2.92482 15.668 2.56666 16.2883 2.33041 16.8006C2.09211 17.3173 1.91114 17.858 1.97102 18.4277C2.05693 19.2451 2.48563 19.9877 3.15055 20.4708C3.614 20.8075 4.17278 20.9211 4.73942 20.9731C5.30117 21.0246 6.01747 21.0246 6.88897 21.0246H17.1106C17.9821 21.0246 18.6984 21.0246 19.2602 20.9731C19.8268 20.9211 20.3856 20.8075 20.8491 20.4708C21.514 19.9877 21.9427 19.2451 22.0286 18.4277C22.0885 17.858 21.9075 17.3173 21.6692 16.8006C21.433 16.2883 21.0748 15.668 20.6391 14.9133L15.5282 6.06096C15.0925 5.30622 14.7343 4.68589 14.4088 4.22516C14.0805 3.76043 13.7027 3.33333 13.1793 3.10033ZM11.0472 5.19963C11.4706 4.4663 12.529 4.4663 12.9524 5.19963L20.0971 17.5746C20.5205 18.308 19.9913 19.2246 19.1445 19.2246H4.85511C4.00834 19.2246 3.4791 18.308 3.90249 17.5746L11.0472 5.19963Z" fill="#F55A00"/>
</svg>
