<svg width="24" height="24" viewBox="0 0 24 24" fill="none" xmlns="http://www.w3.org/2000/svg">
<path d="M10.0001 10.601C10.4971 10.601 10.9001 11.0039 10.9001 11.501V16.501C10.9001 16.9981 10.4971 17.401 10.0001 17.401C9.50303 17.401 9.10009 16.9981 9.10009 16.501V11.501C9.10009 11.0039 9.50303 10.601 10.0001 10.601Z" fill="#005EEB"/>
<path d="M14.0001 10.601C14.4971 10.601 14.9001 11.0039 14.9001 11.501V16.501C14.9001 16.9981 14.4971 17.401 14.0001 17.401C13.503 17.401 13.1001 16.9981 13.1001 16.501V11.501C13.1001 11.0039 13.503 10.601 14.0001 10.601Z" fill="#005EEB"/>
<path fill-rule="evenodd" clip-rule="evenodd" d="M20 5.85139H16.3999C16.3999 5.35069 16.3987 4.92216 16.3697 4.56761C16.3379 4.17845 16.2683 3.79986 16.0838 3.43792C15.8058 2.89225 15.3622 2.44861 14.8165 2.17058C14.4546 1.98616 14.076 1.91653 13.6868 1.88473C13.3164 1.85447 12.8653 1.85448 12.3354 1.85449H11.6645C11.1347 1.85448 10.6835 1.85447 10.3131 1.88473C9.92389 1.91653 9.5453 1.98616 9.18337 2.17058C8.6377 2.44861 8.19406 2.89225 7.91602 3.43792C7.73161 3.79986 7.66198 4.17845 7.63018 4.56761C7.60121 4.92216 7.59998 5.35069 7.59994 5.85139H4.0001C3.50304 5.85139 3.1001 6.25433 3.1001 6.75139C3.1001 7.24844 3.50304 7.65139 4.0001 7.65139H4.6L4.59999 18.0878C4.59998 18.6176 4.59997 19.0688 4.63023 19.4392C4.66203 19.8284 4.73166 20.207 4.91608 20.5689C5.19411 21.1146 5.63775 21.5582 6.18342 21.8363C6.54535 22.0207 6.92394 22.0903 7.3131 22.1221C7.68351 22.1524 8.13465 22.1524 8.66447 22.1524H15.3354C15.8652 22.1524 16.3164 22.1524 16.6868 22.1221C17.076 22.0903 17.4546 22.0207 17.8165 21.8363C18.3622 21.5582 18.8058 21.1146 19.0839 20.5689C19.2683 20.207 19.3379 19.8284 19.3697 19.4392C19.4 19.0688 19.4 18.6176 19.4 18.0878V7.65139H20C20.4971 7.65139 20.9 7.24844 20.9 6.75139C20.9 6.25433 20.4971 5.85139 20 5.85139ZM14.6003 5.85139H9.40029V5.54537C9.40029 4.73081 9.41139 4.53698 9.45413 4.40545C9.56294 4.07057 9.82549 3.80802 10.1604 3.69921C10.2919 3.65648 10.4857 3.64537 11.3003 3.64537H12.7003C13.5148 3.64537 13.7087 3.65648 13.8402 3.69921C14.1751 3.80802 14.4376 4.07057 14.5464 4.40545C14.5892 4.53698 14.6003 4.73081 14.6003 5.54537V5.85139ZM6.40032 18.446V7.65139H17.6003V18.446C17.6003 19.2605 17.5892 19.4544 17.5464 19.5859C17.4376 19.9208 17.1751 20.1833 16.8402 20.2921C16.7087 20.3349 16.5149 20.346 15.7003 20.346H8.30031C7.48575 20.346 7.29192 20.3349 7.1604 20.2921C6.82552 20.1833 6.56297 19.9208 6.45416 19.5859C6.41142 19.4544 6.40032 19.2605 6.40032 18.446Z" fill="#005EEB"/>
</svg>
