<svg width="48" height="48" viewBox="0 0 48 48" fill="none" xmlns="http://www.w3.org/2000/svg">
<rect width="48" height="48" rx="12" fill="#D17600" fill-opacity="0.2"/>
<g opacity="0.74">
<path d="M25.893 14.1123C25.9436 13.7073 25.7155 13.319 25.3371 13.1662C24.9587 13.0133 24.5248 13.1342 24.28 13.4607L17.1756 22.9332C16.8875 23.3173 16.635 23.654 16.4596 23.9383C16.2865 24.2191 16.0912 24.596 16.1004 25.0401C16.1123 25.6103 16.3796 26.145 16.8287 26.4966C17.1785 26.7705 17.5972 26.8404 17.9256 26.8704C18.2583 26.9007 18.6792 26.9007 19.1593 26.9007L22.9805 26.9007L22.1069 33.889C22.0563 34.294 22.2845 34.6823 22.6629 34.8351C23.0412 34.988 23.4751 34.8671 23.72 34.5407L30.8243 25.0681C31.1124 24.6841 31.365 24.3474 31.5403 24.063C31.7134 23.7822 31.9088 23.4053 31.8995 22.9612C31.8877 22.391 31.6203 21.8563 31.1713 21.5047C30.8215 21.2308 30.4028 21.1609 30.0743 21.131C29.7416 21.1006 29.3207 21.1006 28.8406 21.1007L25.0195 21.1007L25.893 14.1123Z" fill="#D17600"/>
</g>
</svg>
