<svg width="48" height="48" viewBox="0 0 48 48" fill="none" xmlns="http://www.w3.org/2000/svg">
<rect width="48" height="48" rx="12" fill="#00BDDE" fill-opacity="0.2"/>
<g opacity="0.74">
<path d="M17.8285 16C17.8084 16.0242 17.7886 16.0481 17.7692 16.0716L17.7091 16.1441L14.3938 20.1224C14.1538 20.4104 13.9227 20.6875 13.7598 20.9423C13.7274 20.9931 13.6957 21.0458 13.6655 21.1006H22.0791L17.8285 16Z" fill="#0098B2"/>
<path d="M13.6964 22.9006C13.7314 22.9591 13.7681 23.0149 13.8056 23.0683C13.9794 23.3159 14.2221 23.5828 14.4743 23.8602L21.8906 32.0181C22.205 32.364 22.5006 32.6893 22.7775 32.9201C22.8756 33.0018 22.9828 33.0817 23.1001 33.1526V22.9006H13.6964Z" fill="#0098B2"/>
<path d="M24.9001 33.1527C25.0175 33.0818 25.1247 33.0019 25.2228 32.9201C25.4997 32.6893 25.7953 32.364 26.1096 32.0182L33.526 23.8602C33.7783 23.5828 34.021 23.3159 34.1947 23.0683C34.2322 23.0149 34.269 22.9591 34.3039 22.9006H24.9001V33.1527Z" fill="#0098B2"/>
<path d="M34.3348 21.1006C34.3047 21.0458 34.273 20.9931 34.2405 20.9423C34.0776 20.6875 33.8466 20.4104 33.6065 20.1224L30.2913 16.1441L30.2312 16.0716C30.2117 16.0481 30.192 16.0241 30.1718 15.9999L25.9212 21.1006H34.3348Z" fill="#0098B2"/>
<path d="M28.5724 15.1075C28.4283 15.0992 28.2882 15.0998 28.1576 15.1004L28.0634 15.1006H19.9369L19.8428 15.1004C19.7121 15.0998 19.572 15.0992 19.4279 15.1075L24.0001 20.5942L28.5724 15.1075Z" fill="#0098B2"/>
</g>
</svg>
