<svg width="24" height="24" viewBox="0 0 24 24" fill="none" xmlns="http://www.w3.org/2000/svg">
<path d="M11.3638 7.12036C11.7153 6.76889 12.2852 6.76889 12.6366 7.12036L13.5205 8.00424C13.872 8.35571 13.872 8.92556 13.5205 9.27703C13.1691 9.62851 12.5992 9.62851 12.2477 9.27703L11.3638 8.39315C11.0124 8.04168 11.0124 7.47183 11.3638 7.12036Z" fill="#913500"/>
<path d="M14.7226 10.4791C15.0741 10.1276 15.6439 10.1276 15.9954 10.4791L16.8793 11.363C17.2308 11.7145 17.2308 12.2843 16.8793 12.6358C16.5278 12.9873 15.958 12.9873 15.6065 12.6358L14.7226 11.7519C14.3711 11.4004 14.3711 10.8306 14.7226 10.4791Z" fill="#913500"/>
<path fill-rule="evenodd" clip-rule="evenodd" d="M3.94799 9.58647C3.37661 10.1578 2.9093 10.6251 2.56056 11.0359C2.19959 11.4611 1.91307 11.8847 1.75045 12.3852C1.49594 13.1684 1.49594 14.0122 1.75045 14.7955C2.01851 15.6205 2.65268 16.2893 3.4878 17.1325C3.76548 17.4129 4.19342 17.4797 4.54334 17.2973C5.14717 16.9824 5.90864 17.0801 6.41408 17.5856C6.91951 18.091 7.01719 18.8525 6.70238 19.4563C6.51995 19.8062 6.58674 20.2342 6.86711 20.5118C7.71034 21.347 8.37915 21.9811 9.20415 22.2492C9.98744 22.5037 10.8312 22.5037 11.6145 22.2492C12.115 22.0866 12.5385 21.8001 12.9637 21.4391C13.3745 21.0903 13.8418 20.623 14.4132 20.0517L20.0526 14.4122C20.624 13.8408 21.0913 13.3735 21.4401 12.9627C21.801 12.5375 22.0875 12.114 22.2502 11.6135C22.5047 10.8302 22.5047 9.98646 22.2502 9.20317C21.9821 8.37819 21.348 7.70939 20.5129 6.86619C20.2352 6.58579 19.8072 6.51902 19.4573 6.7015C18.8534 7.0164 18.0918 6.91875 17.5864 6.41327C17.0809 5.9078 16.9832 5.14624 17.2981 4.54239C17.4806 4.19246 17.4138 3.76448 17.1334 3.48677C16.2902 2.65168 15.6215 2.01753 14.7965 1.74947C14.0132 1.49497 13.1694 1.49497 12.3861 1.74947C11.8856 1.91209 11.4621 2.19861 11.0369 2.55958C10.6261 2.90832 10.1588 3.37561 9.58748 3.94698L3.94799 9.58647ZM3.58837 12.6369C3.72306 12.3726 3.98388 12.096 4.82309 11.2568L11.2578 4.82215C12.097 3.98294 12.3735 3.72212 12.6378 3.58743C13.2368 3.28225 13.9456 3.28225 14.5446 3.58743C14.7486 3.6914 14.9628 3.87266 15.4479 4.34852C15.1215 5.49581 15.4091 6.78158 16.3135 7.68602C17.2179 8.59045 18.5037 8.87805 19.651 8.55162C20.1268 9.03669 20.3081 9.25087 20.4121 9.45491C20.7173 10.0539 20.7173 10.7627 20.4121 11.3617C20.2774 11.626 20.0166 11.9025 19.1774 12.7417L12.7427 19.1764C11.9035 20.0156 11.627 20.2764 11.3626 20.4111C10.7637 20.7163 10.0548 20.7163 9.45585 20.4111C9.25179 20.3072 9.0376 20.1259 8.55247 19.65C8.87877 18.5027 8.59115 17.2171 7.68679 16.3127C6.78243 15.4084 5.49678 15.1207 4.34955 15.447C3.87363 14.9619 3.69235 14.7477 3.58837 14.5437C3.28319 13.9447 3.28319 13.2358 3.58837 12.6369Z" fill="#913500"/>
</svg>
