<svg width="48" height="48" viewBox="0 0 48 48" fill="none" xmlns="http://www.w3.org/2000/svg">
<rect width="48" height="48" rx="12" fill="#6541F2" fill-opacity="0.2"/>
<g opacity="0.74">
<path fill-rule="evenodd" clip-rule="evenodd" d="M18.5 15.0996C18.0029 15.0996 17.6 15.5025 17.6 15.9996L17.5999 18.5996H14.0001C13.503 18.5996 13.1001 19.0026 13.1001 19.4996C13.1001 25.1094 17.5416 29.6818 23.0999 29.8921V32.0996H18.4999C18.0029 32.0996 17.5999 32.5026 17.5999 32.9996C17.5999 33.4967 18.0029 33.8996 18.4999 33.8996H29.4999C29.9969 33.8996 30.3999 33.4967 30.3999 32.9996C30.3999 32.5026 29.9969 32.0996 29.4999 32.0996H24.8999V29.8921C30.4582 29.6818 34.8997 25.1094 34.8997 19.4996C34.8997 19.0026 34.4968 18.5996 33.9997 18.5996H30.3999L30.3999 15.9996C30.3999 15.7609 30.3051 15.532 30.1363 15.3632C29.9676 15.1944 29.7386 15.0996 29.4999 15.0996H18.5ZM30.3999 20.3996L30.3999 21.2994C30.3999 22.702 30.3673 23.5834 30.2834 24.2782L30.2818 24.2917C30.1796 25.0429 29.9994 25.7192 29.7238 26.3317C31.5522 24.9315 32.8021 22.814 33.0532 20.3996H30.3999ZM18.276 26.3316C18.0059 25.7256 17.8301 25.0522 17.7288 24.2889L17.7281 24.2838C17.6326 23.5317 17.5999 22.6377 17.5999 21.2994L17.5999 20.3996H14.9466C15.1977 22.814 16.4476 24.9315 18.276 26.3316ZM19.3999 21.2994L19.4 16.8996H28.5999L28.5999 21.2994C28.5999 22.6854 28.5668 23.4753 28.4972 24.0558C28.3307 25.2722 27.938 26.0977 27.2702 26.7662C26.418 27.6083 25.2172 28.0994 23.9999 28.0994C22.794 28.0994 21.5711 27.5977 20.7295 26.7662C20.0615 26.0975 19.6798 25.3047 19.5134 24.0544C19.4332 23.4209 19.3999 22.6214 19.3999 21.2994Z" fill="#5B37ED"/>
</g>
</svg>
