<svg width="48" height="48" viewBox="0 0 48 48" fill="none" xmlns="http://www.w3.org/2000/svg">
<rect width="48" height="48" rx="12" fill="#58CF04" fill-opacity="0.2"/>
<g opacity="0.74">
<path d="M23.4999 18.5992C23.997 18.5992 24.3999 19.0022 24.3999 19.4992V24.1265L26.6111 26.3377C26.9625 26.6892 26.9625 27.259 26.6111 27.6105C26.2596 27.962 25.6897 27.962 25.3383 27.6105L22.8634 25.1356C22.6839 24.9561 22.596 24.7196 22.5999 24.4843V19.4992C22.5999 19.0022 23.0029 18.5992 23.4999 18.5992Z" fill="#429E00"/>
<path fill-rule="evenodd" clip-rule="evenodd" d="M24.0001 14.0996C18.5325 14.0996 14.1001 18.532 14.1001 23.9996C14.1001 29.4672 18.5325 33.8996 24.0001 33.8996C29.4677 33.8996 33.9 29.4672 33.9 23.9996C33.9 18.532 29.4677 14.0996 24.0001 14.0996ZM15.9001 23.9996C15.9001 19.5261 19.5266 15.8996 24.0001 15.8996C28.4735 15.8996 32.1 19.5261 32.1 23.9996C32.1 28.4731 28.4735 32.0996 24.0001 32.0996C19.5266 32.0996 15.9001 28.4731 15.9001 23.9996Z" fill="#429E00"/>
</g>
</svg>
