<svg width="48" height="48" viewBox="0 0 48 48" fill="none" xmlns="http://www.w3.org/2000/svg">
<rect width="48" height="48" rx="12" fill="#E52222" fill-opacity="0.2"/>
<g opacity="0.74">
<path fill-rule="evenodd" clip-rule="evenodd" d="M24.0001 14.1006C18.5325 14.1006 14.1001 18.533 14.1001 24.0006C14.1001 29.4682 18.5325 33.9006 24.0001 33.9006C29.4677 33.9006 33.9 29.4682 33.9 24.0006C33.9 18.533 29.4677 14.1006 24.0001 14.1006ZM15.9001 24.0006C15.9001 19.5271 19.5266 15.9006 24.0001 15.9006C25.9126 15.9006 27.6703 16.5634 29.056 17.6719L17.6714 29.0565C16.5629 27.6708 15.9001 25.9131 15.9001 24.0006ZM18.9442 30.3293C20.3299 31.4378 22.0876 32.1006 24.0001 32.1006C28.4735 32.1006 32.1 28.4741 32.1 24.0006C32.1 22.0881 31.4372 20.3304 30.3287 18.9447L18.9442 30.3293Z" fill="#E52222"/>
</g>
</svg>
