<svg width="48" height="48" viewBox="0 0 48 48" fill="none" xmlns="http://www.w3.org/2000/svg">
<rect width="48" height="48" rx="12" fill="#F55A00" fill-opacity="0.2"/>
<g opacity="0.74">
<path d="M24 20.0996C24.4971 20.0996 24.9 20.5026 24.9 20.9996V24.9996C24.9 25.4967 24.4971 25.8996 24 25.8996C23.503 25.8996 23.1 25.4967 23.1 24.9996V20.9996C23.1 20.5026 23.503 20.0996 24 20.0996Z" fill="#F55A00"/>
<path d="M24.9999 28.4996C24.9999 29.0519 24.5522 29.4996 23.9999 29.4996C23.4476 29.4996 22.9999 29.0519 22.9999 28.4996C22.9999 27.9473 23.4476 27.4996 23.9999 27.4996C24.5522 27.4996 24.9999 27.9473 24.9999 28.4996Z" fill="#F55A00"/>
<path fill-rule="evenodd" clip-rule="evenodd" d="M25.1793 15.1003C24.4285 14.766 23.5711 14.766 22.8203 15.1003C22.297 15.3333 21.9191 15.7604 21.5908 16.2252C21.2653 16.6859 20.9072 17.3062 20.4714 18.061L15.3606 26.9132C14.9248 27.668 14.5667 28.2883 14.3304 28.8006C14.0921 29.3173 13.9111 29.858 13.971 30.4277C14.0569 31.2451 14.4856 31.9877 15.1506 32.4708C15.614 32.8075 16.1728 32.9211 16.7394 32.9731C17.3012 33.0246 18.0175 33.0246 18.889 33.0246H29.1106C29.9821 33.0246 30.6984 33.0246 31.2602 32.9731C31.8268 32.9211 32.3856 32.8075 32.8491 32.4708C33.514 31.9877 33.9427 31.2451 34.0286 30.4277C34.0885 29.858 33.9075 29.3173 33.6692 28.8006C33.433 28.2883 33.0748 27.668 32.6391 26.9133L27.5282 18.061C27.0925 17.3062 26.7343 16.6859 26.4088 16.2252C26.0805 15.7604 25.7027 15.3333 25.1793 15.1003ZM23.0472 17.1996C23.4706 16.4663 24.529 16.4663 24.9524 17.1996L32.0971 29.5746C32.5205 30.308 31.9913 31.2246 31.1445 31.2246H16.8551C16.0083 31.2246 15.4791 30.308 15.9025 29.5746L23.0472 17.1996Z" fill="#F55A00"/>
</g>
</svg>
