<svg width="48" height="48" viewBox="0 0 48 48" fill="none" xmlns="http://www.w3.org/2000/svg">
<rect width="48" height="48" rx="12" fill="#5B37ED" fill-opacity="0.2"/>
<g opacity="0.74">
<path fill-rule="evenodd" clip-rule="evenodd" d="M24.0001 14.1006C19.9132 14.1006 16.6001 17.4137 16.6001 21.5006C16.6001 24.2615 18.1121 26.6677 20.3501 27.9391L20.3501 28.1339C20.3501 28.5254 20.3501 28.8719 20.3735 29.1591C20.3985 29.4649 20.4545 29.7817 20.6117 30.0902C20.8418 30.5418 21.2089 30.9089 21.6605 31.139C21.969 31.2962 22.2858 31.3522 22.5916 31.3772C22.8788 31.4006 23.2252 31.4006 23.6167 31.4006H24.3834C24.7749 31.4006 25.1214 31.4006 25.4086 31.3772C25.7144 31.3522 26.0312 31.2962 26.3397 31.139C26.7913 30.9089 27.1584 30.5418 27.3885 30.0902C27.5457 29.7817 27.6017 29.4649 27.6267 29.1591C27.6501 28.8719 27.6501 28.5255 27.6501 28.134L27.6501 27.9391C29.8881 26.6677 31.4001 24.2615 31.4001 21.5006C31.4001 17.4137 28.087 14.1006 24.0001 14.1006ZM18.4001 21.5004C18.4001 18.4076 20.9074 15.9004 24.0001 15.9004C27.0929 15.9004 29.6001 18.4076 29.6001 21.5004C29.6001 23.745 28.2795 25.6831 26.3689 26.5764C26.0524 26.7244 25.8501 27.0423 25.8501 27.3917V28.4004C25.8501 29.0288 25.839 29.1296 25.8208 29.1858C25.7614 29.3685 25.6182 29.5117 25.4356 29.571C25.3794 29.5893 25.2786 29.6004 24.6501 29.6004H23.3501C22.7217 29.6004 22.6209 29.5893 22.5647 29.571C22.3821 29.5117 22.2389 29.3685 22.1795 29.1858C22.1613 29.1296 22.1501 29.0288 22.1501 28.4004V27.3917C22.1501 27.0423 21.9479 26.7244 21.6314 26.5764C19.7208 25.6831 18.4001 23.745 18.4001 21.5004Z" fill="#5B37ED"/>
<path d="M21.7501 33.101C21.2531 33.101 20.8501 33.5039 20.8501 34.001C20.8501 34.498 21.2531 34.901 21.7501 34.901H26.2501C26.7472 34.901 27.1501 34.498 27.1501 34.001C27.1501 33.5039 26.7472 33.101 26.2501 33.101H21.7501Z" fill="#5B37ED"/>
</g>
</svg>
