<svg width="48" height="48" viewBox="0 0 48 48" fill="none" xmlns="http://www.w3.org/2000/svg">
<rect width="48" height="48" rx="12" fill="#005EEB" fill-opacity="0.2"/>
<g opacity="0.74">
<path d="M22.0001 22.601C22.4971 22.601 22.9001 23.0039 22.9001 23.501V28.501C22.9001 28.9981 22.4971 29.401 22.0001 29.401C21.503 29.401 21.1001 28.9981 21.1001 28.501V23.501C21.1001 23.0039 21.503 22.601 22.0001 22.601Z" fill="#005EEB"/>
<path d="M26.0001 22.601C26.4971 22.601 26.9001 23.0039 26.9001 23.501V28.501C26.9001 28.9981 26.4971 29.401 26.0001 29.401C25.503 29.401 25.1001 28.9981 25.1001 28.501V23.501C25.1001 23.0039 25.503 22.601 26.0001 22.601Z" fill="#005EEB"/>
<path fill-rule="evenodd" clip-rule="evenodd" d="M32 17.8514H28.3999C28.3999 17.3507 28.3987 16.9222 28.3697 16.5676C28.3379 16.1784 28.2683 15.7999 28.0838 15.4379C27.8058 14.8923 27.3622 14.4486 26.8165 14.1706C26.4546 13.9862 26.076 13.9165 25.6868 13.8847C25.3164 13.8545 24.8653 13.8545 24.3354 13.8545H23.6645C23.1347 13.8545 22.6835 13.8545 22.3131 13.8847C21.9239 13.9165 21.5453 13.9862 21.1834 14.1706C20.6377 14.4486 20.1941 14.8923 19.916 15.4379C19.7316 15.7999 19.662 16.1784 19.6302 16.5676C19.6012 16.9222 19.6 17.3507 19.5999 17.8514H16.0001C15.503 17.8514 15.1001 18.2543 15.1001 18.7514C15.1001 19.2484 15.503 19.6514 16.0001 19.6514H16.6L16.6 30.0878C16.6 30.6176 16.6 31.0688 16.6302 31.4392C16.662 31.8284 16.7317 32.207 16.9161 32.5689C17.1941 33.1146 17.6377 33.5582 18.1834 33.8363C18.5453 34.0207 18.9239 34.0903 19.3131 34.1221C19.6835 34.1524 20.1346 34.1524 20.6645 34.1524H27.3354C27.8652 34.1524 28.3164 34.1524 28.6868 34.1221C29.076 34.0903 29.4546 34.0207 29.8165 33.8363C30.3622 33.5582 30.8058 33.1146 31.0839 32.5689C31.2683 32.207 31.3379 31.8284 31.3697 31.4392C31.4 31.0688 31.4 30.6176 31.4 30.0878V19.6514H32C32.4971 19.6514 32.9 19.2484 32.9 18.7514C32.9 18.2543 32.4971 17.8514 32 17.8514ZM26.6003 17.8514H21.4003V17.5454C21.4003 16.7308 21.4114 16.537 21.4541 16.4055C21.5629 16.0706 21.8255 15.808 22.1604 15.6992C22.2919 15.6565 22.4857 15.6454 23.3003 15.6454H24.7003C25.5148 15.6454 25.7087 15.6565 25.8402 15.6992C26.1751 15.808 26.4376 16.0706 26.5464 16.4055C26.5892 16.537 26.6003 16.7308 26.6003 17.5454V17.8514ZM18.4003 30.446V19.6514H29.6003V30.446C29.6003 31.2605 29.5892 31.4544 29.5464 31.5859C29.4376 31.9208 29.1751 32.1833 28.8402 32.2921C28.7087 32.3349 28.5148 32.346 27.7003 32.346H20.3003C19.4858 32.346 19.2919 32.3349 19.1604 32.2921C18.8255 32.1833 18.563 31.9208 18.4542 31.5859C18.4114 31.4544 18.4003 31.2605 18.4003 30.446Z" fill="#005EEB"/>
</g>
</svg>
