<svg width="287" height="80" viewBox="0 0 287 80" fill="none" xmlns="http://www.w3.org/2000/svg">
<rect width="287" height="80" rx="16" fill="white"/>
<path d="M55.3862 24.3901H53.2305V55.6096H55.3862V24.3901Z" fill="black"/>
<path d="M58.4641 24.3901H57.3862V55.6096H58.4641V24.3901Z" fill="black"/>
<path d="M61.542 24.3901H60.4641V55.6096H61.542V24.3901Z" fill="black"/>
<path d="M64.6198 24.3901H63.542V55.6096H64.6198V24.3901Z" fill="black"/>
<path d="M67.6977 24.3901H66.6199V55.6096H67.6977V24.3901Z" fill="black"/>
<path d="M71.8532 24.3901H69.6975V55.6096H71.8532V24.3901Z" fill="black"/>
<path d="M74.9311 24.3901H73.8533V55.6096H74.9311V24.3901Z" fill="black"/>
<path d="M80.1647 24.3901H76.9312V55.6096H80.1647V24.3901Z" fill="black"/>
<path d="M84.3202 24.3901H82.1646V55.6096H84.3202V24.3901Z" fill="black"/>
<path d="M88.476 24.3901H86.3203V55.6096H88.476V24.3901Z" fill="black"/>
<path d="M91.5539 24.3901H90.4761V55.6096H91.5539V24.3901Z" fill="black"/>
<path d="M94.6318 24.3901H93.554V55.6096H94.6318V24.3901Z" fill="black"/>
<path d="M97.7097 24.3901H96.6318V55.6096H97.7097V24.3901Z" fill="black"/>
<path d="M101.865 24.3901H99.7095V55.6096H101.865V24.3901Z" fill="black"/>
<path d="M104.943 24.3901H103.865V55.6096H104.943V24.3901Z" fill="black"/>
<path d="M108.021 24.3901H106.943V55.6096H108.021V24.3901Z" fill="black"/>
<path d="M112.177 24.3901H110.021V55.6096H112.177V24.3901Z" fill="black"/>
<path d="M117.41 24.3901H114.177V55.6096H117.41V24.3901Z" fill="black"/>
<path d="M122.644 24.3901H119.41V55.6096H122.644V24.3901Z" fill="black"/>
<path d="M127.877 24.3901H124.644V55.6096H127.877V24.3901Z" fill="black"/>
<path d="M132.033 24.3901H129.877V55.6096H132.033V24.3901Z" fill="black"/>
<path d="M135.111 24.3901H134.033V55.6096H135.111V24.3901Z" fill="black"/>
<path d="M138.189 24.3901H137.111V55.6096H138.189V24.3901Z" fill="black"/>
<path d="M142.344 24.3901H140.189V55.6096H142.344V24.3901Z" fill="black"/>
<path d="M146.5 24.3901H144.344V55.6096H146.5V24.3901Z" fill="black"/>
<path d="M149.578 24.3901H148.5V55.6096H149.578V24.3901Z" fill="black"/>
<path d="M152.656 24.3901H151.578V55.6096H152.656V24.3901Z" fill="black"/>
<path d="M155.734 24.3901H154.656V55.6096H155.734V24.3901Z" fill="black"/>
<path d="M159.889 24.3901H157.734V55.6096H159.889V24.3901Z" fill="black"/>
<path d="M165.123 24.3901H161.889V55.6096H165.123V24.3901Z" fill="black"/>
<path d="M168.201 24.3901H167.123V55.6096H168.201V24.3901Z" fill="black"/>
<path d="M173.434 24.3901H170.201V55.6096H173.434V24.3901Z" fill="black"/>
<path d="M179.745 24.3901H175.434V55.6096H179.745V24.3901Z" fill="black"/>
<path d="M183.901 24.3901H181.746V55.6096H183.901V24.3901Z" fill="black"/>
<path d="M186.979 24.3901H185.901V55.6096H186.979V24.3901Z" fill="black"/>
<path d="M192.213 24.3901H188.979V55.6096H192.213V24.3901Z" fill="black"/>
<path d="M197.446 24.3901H194.213V55.6096H197.446V24.3901Z" fill="black"/>
<path d="M200.524 24.3901H199.446V55.6096H200.524V24.3901Z" fill="black"/>
<path d="M204.68 24.3901H202.524V55.6096H204.68V24.3901Z" fill="black"/>
<path d="M207.758 24.3901H206.68V55.6096H207.758V24.3901Z" fill="black"/>
<path d="M212.991 24.3901H209.758V55.6096H212.991V24.3901Z" fill="black"/>
<path d="M217.147 24.3901H214.991V55.6096H217.147V24.3901Z" fill="black"/>
<path d="M221.302 24.3901H219.147V55.6096H221.302V24.3901Z" fill="black"/>
<path d="M226.536 24.3901H223.302V55.6096H226.536V24.3901Z" fill="black"/>
<path d="M229.614 24.3901H228.536V55.6096H229.614V24.3901Z" fill="black"/>
<path d="M233.769 24.3901H231.614V55.6096H233.769V24.3901Z" fill="black"/>
</svg>
