<svg width="40" height="40" viewBox="0 0 40 40" fill="none" xmlns="http://www.w3.org/2000/svg">
<path d="M12.8635 12.8632C13.2149 12.5117 13.7848 12.5117 14.1362 12.8632L19.9998 18.7268L25.8634 12.8632C26.2149 12.5117 26.7847 12.5117 27.1362 12.8632C27.4877 13.2147 27.4877 13.7845 27.1362 14.136L21.2726 19.9996L27.1362 25.8632C27.4877 26.2147 27.4877 26.7845 27.1362 27.136C26.7847 27.4875 26.2149 27.4875 25.8634 27.136L19.9998 21.2724L14.1362 27.136C13.7848 27.4875 13.2149 27.4875 12.8635 27.136C12.512 26.7845 12.512 26.2147 12.8635 25.8632L18.727 19.9996L12.8635 14.136C12.512 13.7845 12.512 13.2147 12.8635 12.8632Z" fill="#171719"/>
</svg>
