<svg width="24" height="24" viewBox="0 0 24 24" fill="none" xmlns="http://www.w3.org/2000/svg">
<path d="M5.60011 15.144C5.17031 15.1335 4.81387 15.1031 4.49072 15.0165C3.14486 14.6559 2.09362 13.6047 1.733 12.2588C1.59945 11.7604 1.59971 11.1828 1.60007 10.379V10.1199C1.59971 9.31606 1.59945 8.73847 1.733 8.24004C2.09362 6.89418 3.14486 5.84295 4.49072 5.48232C4.98914 5.34877 5.56674 5.34903 6.37058 5.3494L9.84974 5.34943L16.6736 3.00373C16.8291 2.95021 16.9975 2.8923 17.145 2.85601C17.3049 2.81666 17.5527 2.77174 17.8322 2.83998C18.1813 2.92521 18.4842 3.14143 18.6783 3.44387C18.8337 3.68598 18.8718 3.93496 18.8866 4.09898C18.9002 4.25026 18.9002 4.42826 18.9001 4.59276V15.9061C18.9002 16.0706 18.9002 16.2486 18.8866 16.3999C18.8718 16.5639 18.8337 16.8129 18.6783 17.055C18.4842 17.3574 18.1813 17.5737 17.8322 17.6589C17.5527 17.7271 17.3049 17.6822 17.145 17.6429C16.9975 17.6066 16.8291 17.5487 16.6736 17.4951L10.9001 15.5105V18.9994C10.9001 20.463 9.71367 21.6494 8.25011 21.6494C6.78656 21.6494 5.60011 20.463 5.60011 18.9994V15.144Z" fill="#592100"/>
<path d="M22.4001 7.49937C22.4001 7.00231 21.9971 6.59937 21.5001 6.59937C21.003 6.59937 20.6001 7.00231 20.6001 7.49937V12.9994C20.6001 13.4964 21.003 13.8994 21.5001 13.8994C21.9971 13.8994 22.4001 13.4964 22.4001 12.9994V7.49937Z" fill="#592100"/>
</svg>
